<svg width="151" height="36" viewBox="0 0 151 36" fill="none" xmlns="http://www.w3.org/2000/svg">
<path d="M15.2454 11.1721L15.1956 0.051328C15.2053 -0.00542478 15.2537 -0.0151145 15.341 0.0222593C15.377 0.0374857 15.415 0.0637858 15.4552 0.10116C19.819 4.19151 24.8392 5.98338 30.5718 7.29354C30.6175 7.30392 30.6445 7.35167 30.6341 7.39735C30.6341 7.39735 30.6341 7.39805 30.6341 7.39943L29.6267 11.0558C29.6046 11.1333 29.554 11.1721 29.4751 11.1721H15.2454Z" fill="#80A7FF"/>
<path d="M15.1956 0.0512695L15.2454 11.172L7.91146 11.1762C7.84638 11.1762 7.82492 11.2073 7.84707 11.2696L9.18675 14.9759C9.21029 15.0409 9.25668 15.0735 9.32591 15.0735L15.2496 15.0755L15.2517 20.9328H4.96417C4.89355 20.9328 4.84231 20.901 4.81047 20.8373C2.74037 16.538 1.13898 12.0704 0.00631522 7.43467C-0.014455 7.353 0.0160085 7.30248 0.0977047 7.2831C5.81159 5.94387 10.838 4.19353 15.1956 0.0512695Z" fill="#407BFF"/>
<path d="M15.2496 15.0757H28.1541C28.2192 15.0757 28.2407 15.1061 28.2185 15.167C25.3342 22.9214 21.0583 29.8266 15.3908 35.8825C15.3645 35.9116 15.3354 35.9289 15.3036 35.9344C15.2371 35.9482 15.2039 35.9296 15.2039 35.8783L15.2558 24.8219L18.039 24.824C18.1221 24.824 18.199 24.7783 18.2384 24.7057L20.2324 20.9932C20.2427 20.9724 20.2365 20.9475 20.2178 20.9351C20.2109 20.9323 20.2033 20.9309 20.195 20.9309L15.2517 20.933L15.2496 15.0757Z" fill="#80A7FF"/>
<path d="M15.2558 24.822L15.2039 35.8784C12.0468 32.4747 9.31135 28.8203 6.99755 24.9155C6.97885 24.8843 6.98924 24.8449 7.01832 24.8262C7.02801 24.8206 7.03909 24.8179 7.05155 24.8179L15.2558 24.822Z" fill="#407BFF"/>
<path d="M43.3621 26.6342C41.5711 26.6342 40.11 26.2493 38.9788 25.4795C37.8633 24.6939 37.3056 23.5863 37.3056 22.1566C37.3056 22.0152 37.3213 21.8031 37.3527 21.5203H41.5475C41.5004 22.1173 41.6418 22.5886 41.9717 22.9343C42.3016 23.2799 42.8044 23.4527 43.48 23.4527C44.0927 23.4527 44.5719 23.3192 44.9175 23.0521C45.2789 22.785 45.4595 22.408 45.4595 21.9209C45.4595 21.4182 45.2317 21.0097 44.7761 20.6955C44.3362 20.3813 43.6449 20.0278 42.7023 19.635C41.791 19.2579 41.0448 18.9044 40.4635 18.5745C39.8979 18.2289 39.403 17.7654 38.9788 17.1841C38.5546 16.6028 38.3425 15.8722 38.3425 14.9924C38.3268 13.9084 38.5939 12.9657 39.1438 12.1644C39.6936 11.3632 40.4556 10.7505 41.4297 10.3263C42.4038 9.90207 43.5192 9.68998 44.7761 9.68998C45.9073 9.68998 46.9128 9.87065 47.7926 10.232C48.6724 10.5776 49.3559 11.0882 49.8429 11.7638C50.3299 12.4237 50.5734 13.2092 50.5734 14.1205C50.5734 14.3561 50.5656 14.5289 50.5499 14.6389H46.2608C46.2765 14.5761 46.2844 14.4818 46.2844 14.3561C46.2844 13.9162 46.1273 13.5627 45.813 13.2956C45.5145 13.0128 45.0982 12.8714 44.564 12.8714C43.9984 12.8714 43.535 13.0128 43.1736 13.2956C42.828 13.5627 42.6551 13.9319 42.6551 14.4033C42.6551 14.8746 42.8751 15.2752 43.315 15.6051C43.7549 15.9194 44.4383 16.2886 45.3653 16.7128C46.2922 17.137 47.0463 17.5297 47.6277 17.8911C48.2247 18.2524 48.7353 18.7395 49.1595 19.3522C49.5837 19.9492 49.7958 20.6876 49.7958 21.5674C49.7958 22.5415 49.5365 23.4135 49.0181 24.1833C48.4996 24.9531 47.7533 25.558 46.7793 25.9979C45.8052 26.4221 44.6661 26.6342 43.3621 26.6342ZM56.0425 11.9523C55.4141 11.9523 54.9113 11.7874 54.5343 11.4575C54.1729 11.1118 53.9922 10.6798 53.9922 10.1613C53.9922 9.45431 54.2672 8.84944 54.8171 8.34669C55.3669 7.84394 56.0346 7.59257 56.8202 7.59257C57.4486 7.59257 57.9435 7.76539 58.3049 8.11103C58.6662 8.44096 58.8469 8.87301 58.8469 9.40718C58.8469 10.0985 58.572 10.6955 58.0221 11.1982C57.4722 11.701 56.8123 11.9523 56.0425 11.9523ZM57.7864 13.3192L55.4769 26.4692H51.4471L53.7566 13.3192H57.7864ZM65.75 13.1307C66.677 13.1307 67.4625 13.3192 68.1066 13.6963C68.7508 14.0733 69.1986 14.5682 69.4499 15.1809L69.7799 13.3192H73.8097L71.5002 26.4457C71.2803 27.6554 70.8404 28.7473 70.1805 29.7214C69.5363 30.7112 68.6644 31.4967 67.5646 32.078C66.4806 32.6593 65.2158 32.95 63.7704 32.95C61.8223 32.95 60.3219 32.4865 59.2693 31.5596C58.2166 30.6483 57.7453 29.4072 57.8553 27.8361H61.838C61.8851 28.3388 62.1129 28.7316 62.5214 29.0144C62.9456 29.3129 63.5034 29.4622 64.1946 29.4622C65.0273 29.4622 65.7343 29.2186 66.3156 28.7316C66.8969 28.2603 67.2818 27.4983 67.4704 26.4457L67.8003 24.5839C67.2975 25.1967 66.6612 25.6994 65.8914 26.0922C65.1373 26.4692 64.2968 26.6578 63.3698 26.6578C62.4429 26.6578 61.618 26.4457 60.8953 26.0215C60.1883 25.5973 59.6306 24.9924 59.2221 24.2069C58.8294 23.4213 58.633 22.5022 58.633 21.4496C58.633 20.9626 58.6801 20.4362 58.7744 19.8707C59.01 18.5195 59.4735 17.3333 60.1648 16.3121C60.8561 15.2909 61.6887 14.5054 62.6628 13.9555C63.6369 13.4056 64.666 13.1307 65.75 13.1307ZM68.6251 19.8942C68.6722 19.6114 68.6958 19.3522 68.6958 19.1165C68.6958 18.3467 68.468 17.7418 68.0124 17.3019C67.5725 16.862 67.0069 16.6421 66.3156 16.6421C65.5143 16.6421 64.7838 16.9327 64.1239 17.514C63.4641 18.0796 63.0477 18.8652 62.8749 19.8707C62.8278 20.1534 62.8042 20.4127 62.8042 20.6483C62.8042 21.4182 63.0242 22.0309 63.4641 22.4865C63.9197 22.9264 64.4853 23.1464 65.1609 23.1464C65.9621 23.1464 66.6927 22.8557 67.3525 22.2744C68.0124 21.6931 68.4366 20.8997 68.6251 19.8942ZM84.7377 13.1778C86.0574 13.1778 87.0943 13.547 87.8485 14.2854C88.6026 15.0238 88.9797 16.0529 88.9797 17.3726C88.9797 17.8125 88.9325 18.2838 88.8383 18.7866L87.4714 26.4692H83.4651L84.7377 19.3286C84.7848 19.0615 84.8084 18.8259 84.8084 18.6216C84.8084 17.9618 84.6199 17.4512 84.2428 17.0898C83.8815 16.7285 83.3709 16.5478 82.711 16.5478C81.9254 16.5478 81.2656 16.7913 80.7314 17.2783C80.1972 17.7654 79.8516 18.4488 79.6945 19.3286V19.2108L78.4219 26.4692H74.3921L76.7016 13.3192H80.7314L80.4251 15.0867C80.9435 14.5054 81.572 14.0419 82.3104 13.6963C83.0645 13.3506 83.8736 13.1778 84.7377 13.1778ZM94.8672 11.9523C94.2388 11.9523 93.736 11.7874 93.3589 11.4575C92.9976 11.1118 92.8169 10.6798 92.8169 10.1613C92.8169 9.45431 93.0919 8.84944 93.6417 8.34669C94.1916 7.84394 94.8593 7.59257 95.6449 7.59257C96.2733 7.59257 96.7682 7.76539 97.1296 8.11103C97.4909 8.44096 97.6716 8.87301 97.6716 9.40718C97.6716 10.0985 97.3967 10.6955 96.8468 11.1982C96.2969 11.701 95.637 11.9523 94.8672 11.9523ZM96.6111 13.3192L94.3016 26.4692H90.2718L92.5813 13.3192H96.6111ZM103.444 26.6342C102.438 26.6342 101.535 26.4771 100.733 26.1629C99.9321 25.8329 99.2958 25.3616 98.8245 24.7489C98.3532 24.1205 98.1175 23.382 98.1175 22.5337C98.1175 22.4237 98.1332 22.2273 98.1646 21.9445H100.828C100.765 22.6672 100.977 23.2721 101.464 23.7591C101.951 24.2304 102.65 24.4661 103.561 24.4661C104.535 24.4661 105.297 24.2697 105.847 23.8769C106.397 23.4685 106.672 22.8871 106.672 22.133C106.672 21.6774 106.531 21.2925 106.248 20.9783C105.981 20.6483 105.635 20.3734 105.211 20.1534C104.803 19.9335 104.229 19.6743 103.491 19.3758C102.517 18.9673 101.739 18.5981 101.158 18.2681C100.576 17.9382 100.074 17.4826 99.6493 16.9013C99.2408 16.32 99.0366 15.5894 99.0366 14.7096C99.0366 13.7355 99.288 12.8871 99.7907 12.1644C100.293 11.426 100.985 10.8604 101.865 10.4677C102.76 10.0749 103.766 9.87851 104.881 9.87851C105.997 9.87851 106.955 10.067 107.756 10.4441C108.573 10.8055 109.186 11.3239 109.594 11.9995C110.019 12.6593 110.207 13.437 110.16 14.3326H107.332C107.395 13.6884 107.198 13.1542 106.743 12.73C106.287 12.2901 105.627 12.0702 104.763 12.0702C103.852 12.0702 103.121 12.2823 102.572 12.7065C102.037 13.115 101.77 13.6727 101.77 14.3797C101.77 14.8196 101.904 15.2045 102.171 15.5344C102.454 15.8487 102.807 16.1236 103.231 16.3593C103.656 16.5792 104.229 16.8463 104.952 17.1605C105.926 17.6004 106.704 17.9932 107.285 18.3388C107.882 18.6845 108.392 19.1558 108.817 19.7528C109.241 20.3341 109.453 21.0568 109.453 21.9209C109.453 22.8322 109.202 23.6491 108.699 24.3718C108.196 25.0788 107.489 25.6366 106.578 26.045C105.667 26.4378 104.622 26.6342 103.444 26.6342ZM125.658 13.4842L123.372 26.4692H120.685L120.945 24.9374C120.426 25.4716 119.798 25.8958 119.059 26.21C118.337 26.5085 117.59 26.6578 116.821 26.6578C115.454 26.6578 114.362 26.2886 113.545 25.5501C112.728 24.8117 112.319 23.767 112.319 22.4158C112.319 22.0545 112.359 21.6224 112.437 21.1197L113.78 13.4842H116.444L115.171 20.719C115.108 21.1589 115.077 21.4732 115.077 21.6617C115.077 22.5258 115.312 23.1857 115.784 23.6413C116.271 24.0969 116.938 24.3247 117.787 24.3247C118.777 24.3247 119.617 24.034 120.308 23.4527C121 22.8557 121.455 21.9995 121.675 20.884L122.971 13.4842H125.658ZM131.489 15.7701C132.023 14.9846 132.651 14.3718 133.374 13.9319C134.112 13.492 134.929 13.2721 135.825 13.2721L135.33 16.0529H134.647C133.61 16.0529 132.777 16.3121 132.148 16.8306C131.52 17.349 131.08 18.2446 130.829 19.5172L129.603 26.4692H126.917L129.203 13.4842H131.889L131.489 15.7701ZM143.88 13.2721C145.498 13.2721 146.786 13.7277 147.744 14.6389C148.719 15.5501 149.206 16.7756 149.206 18.3153C149.206 18.6766 149.166 19.1087 149.088 19.6114C149.025 19.9571 148.915 20.3813 148.758 20.884H138.836C138.821 20.994 138.813 21.1589 138.813 21.3789C138.813 22.3058 139.096 23.0443 139.661 23.5941C140.242 24.144 140.997 24.419 141.924 24.419C143.385 24.419 144.508 23.8141 145.294 22.6044H148.192C147.595 23.7984 146.715 24.7803 145.553 25.5501C144.39 26.3043 143.047 26.6813 141.523 26.6813C140.439 26.6813 139.488 26.4692 138.671 26.045C137.854 25.6208 137.218 25.016 136.763 24.2304C136.307 23.4292 136.079 22.4944 136.079 21.426C136.079 20.9704 136.126 20.4834 136.22 19.9649C136.456 18.6295 136.935 17.459 137.658 16.4535C138.381 15.4323 139.276 14.6468 140.345 14.0969C141.429 13.547 142.607 13.2721 143.88 13.2721ZM146.401 18.9516C146.433 18.6688 146.448 18.4645 146.448 18.3388C146.448 17.4747 146.158 16.7913 145.576 16.2886C145.011 15.7858 144.272 15.5344 143.361 15.5344C142.403 15.5344 141.539 15.8408 140.769 16.4535C139.999 17.0663 139.473 17.8989 139.19 18.9516H146.401Z" fill="#1C1C1E"/>
</svg>
